# xmcd
#
# Track frame offsets: 
#        187
#        12692
#        26187
#        39182
#        50310
#        63102
#        75232
#        86440
#        97935
#        109440
#        120660
#        135160
#        145127
#        155812
#        167305
#        181265
#        195772
#        209777
#        223282
#        238097
#        247585
#        260055
#        271027
#        283765
#
# Disc length: 3955 seconds
#
# Revision: 5
# Processed by: cddbd v1.5.2PL0 Copyright (c) Steve Scherf et al.
# Submitted via: ExactAudioCopy v0.99pb3
#
DISCID=460f7118
DTITLE=Bo Diddley - The Chess Box 1955-1959 - Disc 1
DYEAR=1990
DGENRE=Rhythm and Blues
TTITLE0=Bo Diddley
TTITLE1=I'm A Man
TTITLE2=You Don't Love Me
TTITLE3=Diddley Daddy
TTITLE4=Pretty Thing
TTITLE5=Bring It To Jerome (Alt. Take)
TTITLE6=Bring It To Jerome
TTITLE7=Diddy Wah Diddy
TTITLE8=I'm Looking For A Woman
TTITLE9=Who Do You Love?
TTITLE10=Down Home Special
TTITLE11=Hey Bo Diddley
TTITLE12=Mona (I Need You Baby)
TTITLE13=Say Boss Man
TTITLE14=Before You Accuse Me
TTITLE15=Say Man
TTITLE16=Hush Your Mouth (Alt. Take)
TTITLE17=The Clock Strikes Twelve
TTITLE18=Dearest Darling (Alt. Take)
TTITLE19=Crackin' Up
TTITLE20=Don't Let Go (Hold On To What You Got)
TTITLE21=I'm Sorry
TTITLE22=Mumblin' Guitar
TTITLE23=The Story Of Bo Diddley
EXTD=YEAR: 19900719 ID3G: 17
EXTT0=
EXTT1=
EXTT2=
EXTT3=
EXTT4=
EXTT5=
EXTT6=
EXTT7=
EXTT8=
EXTT9=
EXTT10=
EXTT11=
EXTT12=
EXTT13=
EXTT14=
EXTT15=
EXTT16=
EXTT17=
EXTT18=
EXTT19=
EXTT20=
EXTT21=
EXTT22=
EXTT23=
PLAYORDER=
